<svg width="520" height="400" viewBox="0 0 520 400" fill="none" xmlns="http://www.w3.org/2000/svg" role="img" aria-labelledby="heroTitle heroDesc">
  <title id="heroTitle">Premium fintech systems illustration</title>
  <desc id="heroDesc">An abstract premium illustration showing structured data layers, logic nodes, signal paths, and controlled execution geometry for algorithmic trading systems.</desc>
  <rect width="520" height="400" rx="32" fill="url(#bg)"/>
  <rect x="1" y="1" width="518" height="398" rx="31" stroke="url(#border)" stroke-opacity="0.55" stroke-width="2"/>
  <g opacity="0.18">
    <path d="M48 74H472" stroke="url(#gridH)" stroke-width="1.1"/>
    <path d="M48 146H472" stroke="url(#gridH)" stroke-width="1.1"/>
    <path d="M48 218H472" stroke="url(#gridH)" stroke-width="1.1"/>
    <path d="M48 290H472" stroke="url(#gridH)" stroke-width="1.1"/>
    <path d="M48 362H472" stroke="url(#gridH)" stroke-width="1.1"/>
    <path d="M88 42V358" stroke="url(#gridV)" stroke-width="1.1"/>
    <path d="M172 42V358" stroke="url(#gridV)" stroke-width="1.1"/>
    <path d="M256 42V358" stroke="url(#gridV)" stroke-width="1.1"/>
    <path d="M340 42V358" stroke="url(#gridV)" stroke-width="1.1"/>
    <path d="M424 42V358" stroke="url(#gridV)" stroke-width="1.1"/>
  </g>
  <g filter="url(#blur)">
    <circle cx="132" cy="104" r="76" fill="#3B82F6" fill-opacity="0.16"/>
    <circle cx="388" cy="118" r="92" fill="#22D3EE" fill-opacity="0.16"/>
    <circle cx="298" cy="284" r="86" fill="#67E8F9" fill-opacity="0.08"/>
  </g>
  <rect x="64" y="66" width="182" height="118" rx="26" fill="url(#panelA)"/>
  <rect x="278" y="56" width="178" height="128" rx="28" fill="url(#panelB)"/>
  <rect x="98" y="224" width="320" height="108" rx="30" fill="url(#panelC)"/>
  <path d="M112 148L154 120L206 134L248 98L302 126L350 108L406 126" stroke="url(#signal)" stroke-width="4.5" stroke-linecap="round" stroke-linejoin="round"/>
  <path d="M156 155C180 190 220 212 266 212C317 212 358 184 378 132" stroke="url(#arc)" stroke-width="2.8" stroke-linecap="round" stroke-dasharray="7 9"/>
  <path d="M136 254H384" stroke="url(#line)" stroke-width="2.2" stroke-linecap="round"/>
  <path d="M136 278H358" stroke="url(#line)" stroke-width="2.2" stroke-linecap="round" opacity="0.84"/>
  <path d="M136 302H316" stroke="url(#line)" stroke-width="2.2" stroke-linecap="round" opacity="0.62"/>
  <path d="M320 86h94" stroke="rgba(255,255,255,0.18)" stroke-width="2" stroke-linecap="round"/>
  <path d="M320 106h72" stroke="rgba(255,255,255,0.14)" stroke-width="2" stroke-linecap="round"/>
  <path d="M320 126h102" stroke="rgba(255,255,255,0.12)" stroke-width="2" stroke-linecap="round"/>
  <path d="M320 146h62" stroke="rgba(255,255,255,0.1)" stroke-width="2" stroke-linecap="round"/>
  <rect x="136" y="240" width="76" height="20" rx="10" fill="url(#pillA)"/>
  <rect x="224" y="240" width="92" height="20" rx="10" fill="url(#pillB)"/>
  <rect x="328" y="240" width="60" height="20" rx="10" fill="url(#pillA)"/>
  <path d="M90 194C116 174 146 170 172 178" stroke="url(#trace)" stroke-width="1.5" stroke-linecap="round" opacity="0.42"/>
  <path d="M352 196C378 180 404 178 430 184" stroke="url(#trace)" stroke-width="1.5" stroke-linecap="round" opacity="0.42"/>
  <circle cx="112" cy="148" r="7.5" fill="#22D3EE"/>
  <circle cx="154" cy="120" r="7.5" fill="#3B82F6"/>
  <circle cx="206" cy="134" r="7.5" fill="#67E8F9"/>
  <circle cx="248" cy="98" r="7.5" fill="#3B82F6"/>
  <circle cx="302" cy="126" r="7.5" fill="#22D3EE"/>
  <circle cx="350" cy="108" r="7.5" fill="#67E8F9"/>
  <circle cx="406" cy="126" r="7.5" fill="#3B82F6"/>
  <defs>
    <linearGradient id="bg" x1="34" y1="24" x2="470" y2="382" gradientUnits="userSpaceOnUse">
      <stop stop-color="#101A32"/>
      <stop offset="0.56" stop-color="#0B1224"/>
      <stop offset="1" stop-color="#09101D"/>
    </linearGradient>
    <linearGradient id="border" x1="70" y1="36" x2="456" y2="364" gradientUnits="userSpaceOnUse">
      <stop stop-color="#22D3EE"/>
      <stop offset="0.5" stop-color="#67E8F9"/>
      <stop offset="1" stop-color="#3B82F6"/>
    </linearGradient>
    <linearGradient id="gridH" x1="48" y1="74" x2="472" y2="74" gradientUnits="userSpaceOnUse">
      <stop stop-color="#22D3EE" stop-opacity="0"/>
      <stop offset="0.5" stop-color="#22D3EE"/>
      <stop offset="1" stop-color="#22D3EE" stop-opacity="0"/>
    </linearGradient>
    <linearGradient id="gridV" x1="88" y1="42" x2="88" y2="358" gradientUnits="userSpaceOnUse">
      <stop stop-color="#3B82F6" stop-opacity="0"/>
      <stop offset="0.5" stop-color="#3B82F6"/>
      <stop offset="1" stop-color="#3B82F6" stop-opacity="0"/>
    </linearGradient>
    <linearGradient id="panelA" x1="64" y1="66" x2="246" y2="184" gradientUnits="userSpaceOnUse">
      <stop stop-color="#13203B" stop-opacity="0.97"/>
      <stop offset="1" stop-color="#0B1222" stop-opacity="0.94"/>
    </linearGradient>
    <linearGradient id="panelB" x1="278" y1="56" x2="456" y2="184" gradientUnits="userSpaceOnUse">
      <stop stop-color="#112642" stop-opacity="0.95"/>
      <stop offset="1" stop-color="#0C1323" stop-opacity="0.9"/>
    </linearGradient>
    <linearGradient id="panelC" x1="98" y1="224" x2="418" y2="332" gradientUnits="userSpaceOnUse">
      <stop stop-color="#131F39" stop-opacity="0.96"/>
      <stop offset="1" stop-color="#0A1120" stop-opacity="0.97"/>
    </linearGradient>
    <linearGradient id="signal" x1="112" y1="148" x2="406" y2="126" gradientUnits="userSpaceOnUse">
      <stop stop-color="#22D3EE"/>
      <stop offset="0.48" stop-color="#67E8F9"/>
      <stop offset="1" stop-color="#3B82F6"/>
    </linearGradient>
    <linearGradient id="line" x1="136" y1="254" x2="384" y2="254" gradientUnits="userSpaceOnUse">
      <stop stop-color="#22D3EE"/>
      <stop offset="1" stop-color="#3B82F6"/>
    </linearGradient>
    <linearGradient id="arc" x1="156" y1="155" x2="378" y2="132" gradientUnits="userSpaceOnUse">
      <stop stop-color="#22D3EE"/>
      <stop offset="1" stop-color="#3B82F6"/>
    </linearGradient>
    <linearGradient id="pillA" x1="136" y1="240" x2="212" y2="260" gradientUnits="userSpaceOnUse">
      <stop stop-color="#22D3EE"/>
      <stop offset="1" stop-color="#3B82F6"/>
    </linearGradient>
    <linearGradient id="pillB" x1="224" y1="240" x2="316" y2="260" gradientUnits="userSpaceOnUse">
      <stop stop-color="#67E8F9"/>
      <stop offset="1" stop-color="#3B82F6"/>
    </linearGradient>
    <linearGradient id="trace" x1="90" y1="194" x2="172" y2="178" gradientUnits="userSpaceOnUse">
      <stop stop-color="#22D3EE"/>
      <stop offset="1" stop-color="#3B82F6"/>
    </linearGradient>
    <filter id="blur" x="0" y="-20" width="514" height="390" filterUnits="userSpaceOnUse" color-interpolation-filters="sRGB">
      <feGaussianBlur stdDeviation="36"/>
    </filter>
  </defs>
</svg>
